<svg width="72" height="72" viewBox="0 0 72 72" fill="none" xmlns="http://www.w3.org/2000/svg">
<rect width="72" height="72" rx="12" fill="#ec4899"/>
<path d="M36 18C27.72 18 21 24.72 21 33C21 41.28 27.72 48 36 48C44.28 48 51 41.28 51 33C51 24.72 44.28 18 36 18ZM36 42C30.48 42 26 37.52 26 33C26 28.48 30.48 24 36 24C41.52 24 46 28.48 46 33C46 37.52 41.52 42 36 42Z" fill="white"/>
<path d="M36 30C34.34 30 33 31.34 33 33C33 34.66 34.34 36 36 36C37.66 36 39 34.66 39 33C39 31.34 37.66 30 36 30Z" fill="white"/>
</svg>
