<svg width="512" height="512" viewBox="0 0 512 512" fill="none" xmlns="http://www.w3.org/2000/svg">
<rect width="512" height="512" rx="64" fill="#ec4899"/>
<path d="M256 128C202.98 128 160 170.98 160 224C160 277.02 202.98 320 256 320C309.02 320 352 277.02 352 224C352 170.98 309.02 128 256 128ZM256 288C220.66 288 192 259.34 192 224C192 188.66 220.66 160 256 160C291.34 160 320 188.66 320 224C320 259.34 291.34 288 256 288Z" fill="white"/>
<path d="M256 192C238.33 192 224 206.33 224 224C224 241.67 238.33 256 256 256C273.67 256 288 241.67 288 224C288 206.33 273.67 192 256 192Z" fill="white"/>
<circle cx="384" cy="128" r="32" fill="#22c55e"/>
</svg>
